<svg xmlns="http://www.w3.org/2000/svg" viewBox="0 0 640 420" role="img" aria-labelledby="title desc">
  <title id="title">Arduino Uno illustration</title>
  <desc id="desc">Clean vector illustration of an Arduino Uno board with headers and USB connector.</desc>
  <rect width="640" height="420" rx="32" fill="#f8fafc"/>
  <path d="M136 92h368c28 0 50 22 50 50v136c0 28-22 50-50 50H136c-28 0-50-22-50-50V142c0-28 22-50 50-50Z" fill="#0f766e"/>
  <rect x="108" y="120" width="96" height="54" rx="8" fill="#cbd5e1"/>
  <rect x="124" y="136" width="64" height="22" rx="4" fill="#64748b"/>
  <rect x="410" y="132" width="82" height="82" rx="10" fill="#134e4a"/>
  <text x="451" y="181" text-anchor="middle" font-family="Arial, sans-serif" font-size="18" font-weight="700" fill="#ccfbf1">ATmega</text>
  <circle cx="254" cy="172" r="46" fill="#2dd4bf"/>
  <text x="254" y="180" text-anchor="middle" font-family="Arial, sans-serif" font-size="22" font-weight="700" fill="#042f2e">UNO</text>
  <g fill="#e2e8f0">
    <rect x="150" y="72" width="24" height="18" rx="3"/><rect x="188" y="72" width="24" height="18" rx="3"/><rect x="226" y="72" width="24" height="18" rx="3"/><rect x="264" y="72" width="24" height="18" rx="3"/><rect x="302" y="72" width="24" height="18" rx="3"/><rect x="340" y="72" width="24" height="18" rx="3"/><rect x="378" y="72" width="24" height="18" rx="3"/>
    <rect x="150" y="330" width="24" height="18" rx="3"/><rect x="188" y="330" width="24" height="18" rx="3"/><rect x="226" y="330" width="24" height="18" rx="3"/><rect x="264" y="330" width="24" height="18" rx="3"/><rect x="302" y="330" width="24" height="18" rx="3"/><rect x="340" y="330" width="24" height="18" rx="3"/><rect x="378" y="330" width="24" height="18" rx="3"/>
  </g>
  <text x="320" y="386" text-anchor="middle" font-family="Arial, sans-serif" font-size="22" font-weight="700" fill="#1e293b">Beginner 5V Microcontroller</text>
</svg>
