<svg xmlns="http://www.w3.org/2000/svg" viewBox="0 0 640 420" role="img" aria-labelledby="title desc"><title id="title">ESP8266 WiFi module illustration</title><desc id="desc">Vector illustration of an ESP8266 WiFi module.</desc><rect width="640" height="420" rx="32" fill="#f8fafc"/><rect x="174" y="88" width="292" height="228" rx="24" fill="#0f766e"/><rect x="220" y="128" width="200" height="106" rx="14" fill="#ccfbf1"/><path d="M256 164h128M256 194h128" stroke="#0f766e" stroke-width="10" stroke-linecap="round"/><text x="320" y="274" text-anchor="middle" font-family="Arial,sans-serif" font-size="34" font-weight="900" fill="#ccfbf1">ESP8266</text><path d="M448 112c42 32 42 102 0 136M480 86c68 56 68 162 0 220" fill="none" stroke="#5eead4" stroke-width="8" stroke-linecap="round"/><g fill="#94a3b8"><rect x="202" y="316" width="18" height="42" rx="3"/><rect x="248" y="316" width="18" height="42" rx="3"/><rect x="294" y="316" width="18" height="42" rx="3"/><rect x="340" y="316" width="18" height="42" rx="3"/><rect x="386" y="316" width="18" height="42" rx="3"/></g><text x="320" y="386" text-anchor="middle" font-family="Arial,sans-serif" font-size="22" font-weight="700" fill="#1e293b">Low-Cost WiFi Module</text></svg>
