<svg xmlns="http://www.w3.org/2000/svg" viewBox="0 0 640 420" role="img" aria-labelledby="title desc"><title id="title">Flame sensor module illustration</title><desc id="desc">Vector illustration of a flame sensor module.</desc><rect width="640" height="420" rx="32" fill="#f8fafc"/><rect x="184" y="96" width="272" height="210" rx="22" fill="#dc2626"/><path d="M320 242c-44 0-70-34-54-72 12-30 40-38 38-82 44 36 80 74 70 116-8 26-28 38-54 38Z" fill="#f97316"/><path d="M322 230c-24-2-38-22-26-44 8-18 26-22 24-48 28 26 46 50 40 74-4 14-16 20-38 18Z" fill="#facc15"/><circle cx="410" cy="132" r="20" fill="#fee2e2"/><text x="320" y="386" text-anchor="middle" font-family="Arial,sans-serif" font-size="22" font-weight="700" fill="#1e293b">Infrared Flame Detector</text></svg>
