<svg xmlns="http://www.w3.org/2000/svg" viewBox="0 0 640 420" role="img" aria-labelledby="title desc">
  <title id="title">Electronics component illustration</title>
  <desc id="desc">Clean generic vector illustration for an electronics component module.</desc>
  <rect width="640" height="420" rx="32" fill="#f8fafc"/>
  <rect x="148" y="80" width="344" height="236" rx="24" fill="#1d4ed8"/>
  <rect x="210" y="128" width="220" height="112" rx="16" fill="#dbeafe"/>
  <rect x="246" y="158" width="148" height="52" rx="10" fill="#0f172a"/>
  <text x="320" y="194" text-anchor="middle" font-family="Arial, sans-serif" font-size="24" font-weight="900" fill="#e0f2fe">MODULE</text>
  <circle cx="190" cy="118" r="16" fill="#38bdf8"/>
  <circle cx="450" cy="278" r="16" fill="#2dd4bf"/>
  <path d="M216 272h208" stroke="#93c5fd" stroke-width="10" stroke-linecap="round"/>
  <g fill="#94a3b8">
    <rect x="184" y="316" width="18" height="42" rx="3"/>
    <rect x="230" y="316" width="18" height="42" rx="3"/>
    <rect x="276" y="316" width="18" height="42" rx="3"/>
    <rect x="322" y="316" width="18" height="42" rx="3"/>
    <rect x="368" y="316" width="18" height="42" rx="3"/>
    <rect x="414" y="316" width="18" height="42" rx="3"/>
  </g>
  <text x="320" y="386" text-anchor="middle" font-family="Arial, sans-serif" font-size="22" font-weight="700" fill="#1e293b">Rectronx Component Guide</text>
</svg>
