<svg xmlns="http://www.w3.org/2000/svg" viewBox="0 0 640 420" role="img" aria-labelledby="title desc"><title id="title">HC-05 Bluetooth module illustration</title><desc id="desc">Vector illustration of an HC-05 Bluetooth module.</desc><rect width="640" height="420" rx="32" fill="#f8fafc"/><rect x="180" y="94" width="280" height="214" rx="22" fill="#2563eb"/><rect x="232" y="132" width="176" height="106" rx="12" fill="#dbeafe"/><text x="320" y="194" text-anchor="middle" font-family="Arial,sans-serif" font-size="38" font-weight="900" fill="#1e3a8a">HC-05</text><path d="M500 132l46 46-46 46M500 224l46 46-46 46" fill="none" stroke="#60a5fa" stroke-width="10" stroke-linecap="round" stroke-linejoin="round"/><path d="M500 132v184l46-46-46-46 46-46-46-46Z" fill="none" stroke="#60a5fa" stroke-width="8" stroke-linejoin="round"/><g fill="#94a3b8"><rect x="220" y="308" width="18" height="42" rx="3"/><rect x="270" y="308" width="18" height="42" rx="3"/><rect x="320" y="308" width="18" height="42" rx="3"/><rect x="370" y="308" width="18" height="42" rx="3"/></g><text x="320" y="386" text-anchor="middle" font-family="Arial,sans-serif" font-size="22" font-weight="700" fill="#1e293b">Classic Bluetooth Serial</text></svg>
