<svg xmlns="http://www.w3.org/2000/svg" viewBox="0 0 640 420" role="img" aria-labelledby="title desc"><title id="title">4x4 matrix keypad illustration</title><desc id="desc">Vector illustration of a 4x4 keypad.</desc><rect width="640" height="420" rx="32" fill="#f8fafc"/><rect x="208" y="64" width="224" height="300" rx="24" fill="#0f172a"/><g fill="#334155"><rect x="236" y="98" width="36" height="36" rx="8"/><rect x="302" y="98" width="36" height="36" rx="8"/><rect x="368" y="98" width="36" height="36" rx="8"/><rect x="236" y="156" width="36" height="36" rx="8"/><rect x="302" y="156" width="36" height="36" rx="8"/><rect x="368" y="156" width="36" height="36" rx="8"/><rect x="236" y="214" width="36" height="36" rx="8"/><rect x="302" y="214" width="36" height="36" rx="8"/><rect x="368" y="214" width="36" height="36" rx="8"/><rect x="236" y="272" width="36" height="36" rx="8"/><rect x="302" y="272" width="36" height="36" rx="8"/><rect x="368" y="272" width="36" height="36" rx="8"/></g><text x="320" y="386" text-anchor="middle" font-family="Arial,sans-serif" font-size="22" font-weight="700" fill="#1e293b">Password Input Keypad</text></svg>
