<svg xmlns="http://www.w3.org/2000/svg" viewBox="0 0 640 420" role="img" aria-labelledby="title desc">
  <title id="title">L298N motor driver illustration</title>
  <desc id="desc">Clean vector illustration of an L298N motor driver module with heatsink and terminals.</desc>
  <rect width="640" height="420" rx="32" fill="#f8fafc"/>
  <rect x="140" y="86" width="360" height="226" rx="22" fill="#dc2626"/>
  <rect x="264" y="126" width="112" height="108" rx="10" fill="#334155"/>
  <g fill="#64748b"><rect x="278" y="118" width="12" height="124"/><rect x="302" y="118" width="12" height="124"/><rect x="326" y="118" width="12" height="124"/><rect x="350" y="118" width="12" height="124"/></g>
  <text x="320" y="274" text-anchor="middle" font-family="Arial, sans-serif" font-size="28" font-weight="900" fill="#fee2e2">L298N</text>
  <rect x="158" y="140" width="72" height="84" rx="8" fill="#16a34a"/>
  <rect x="410" y="140" width="72" height="84" rx="8" fill="#16a34a"/>
  <g fill="#94a3b8"><rect x="184" y="312" width="18" height="42" rx="3"/><rect x="224" y="312" width="18" height="42" rx="3"/><rect x="264" y="312" width="18" height="42" rx="3"/><rect x="304" y="312" width="18" height="42" rx="3"/><rect x="344" y="312" width="18" height="42" rx="3"/><rect x="384" y="312" width="18" height="42" rx="3"/></g>
  <text x="320" y="386" text-anchor="middle" font-family="Arial, sans-serif" font-size="22" font-weight="700" fill="#1e293b">Dual DC Motor Driver</text>
</svg>
