<svg xmlns="http://www.w3.org/2000/svg" viewBox="0 0 640 420" role="img" aria-labelledby="title desc"><title id="title">NodeMCU ESP8266 board illustration</title><desc id="desc">Vector illustration of a NodeMCU development board.</desc><rect width="640" height="420" rx="32" fill="#f8fafc"/><rect x="168" y="58" width="304" height="300" rx="24" fill="#1d4ed8"/><rect x="278" y="24" width="84" height="50" rx="8" fill="#cbd5e1"/><rect x="218" y="108" width="204" height="120" rx="14" fill="#dbeafe"/><text x="320" y="176" text-anchor="middle" font-family="Arial,sans-serif" font-size="29" font-weight="900" fill="#1e3a8a">NodeMCU</text><path d="M236 258h168" stroke="#60a5fa" stroke-width="10" stroke-linecap="round"/><g fill="#e2e8f0"><rect x="140" y="96" width="18" height="24" rx="3"/><rect x="140" y="136" width="18" height="24" rx="3"/><rect x="140" y="176" width="18" height="24" rx="3"/><rect x="140" y="216" width="18" height="24" rx="3"/><rect x="482" y="96" width="18" height="24" rx="3"/><rect x="482" y="136" width="18" height="24" rx="3"/><rect x="482" y="176" width="18" height="24" rx="3"/><rect x="482" y="216" width="18" height="24" rx="3"/></g><text x="320" y="386" text-anchor="middle" font-family="Arial,sans-serif" font-size="22" font-weight="700" fill="#1e293b">USB WiFi Development Board</text></svg>
