<svg xmlns="http://www.w3.org/2000/svg" viewBox="0 0 640 420" role="img" aria-labelledby="title desc">
  <title id="title">NRF24L01 RF module illustration</title>
  <desc id="desc">Clean vector illustration of an NRF24L01 RF module with PCB antenna pattern.</desc>
  <rect width="640" height="420" rx="32" fill="#f8fafc"/>
  <rect x="146" y="94" width="348" height="218" rx="22" fill="#16a34a"/>
  <rect x="208" y="142" width="110" height="88" rx="12" fill="#0f172a"/>
  <text x="263" y="193" text-anchor="middle" font-family="Arial, sans-serif" font-size="20" font-weight="900" fill="#dcfce7">NRF</text>
  <path d="M356 132h84v28h-58v28h58v28h-58v28h58" fill="none" stroke="#bbf7d0" stroke-width="12" stroke-linejoin="round"/>
  <g fill="#94a3b8"><rect x="174" y="312" width="18" height="42" rx="3"/><rect x="214" y="312" width="18" height="42" rx="3"/><rect x="254" y="312" width="18" height="42" rx="3"/><rect x="294" y="312" width="18" height="42" rx="3"/><rect x="334" y="312" width="18" height="42" rx="3"/><rect x="374" y="312" width="18" height="42" rx="3"/><rect x="414" y="312" width="18" height="42" rx="3"/><rect x="454" y="312" width="18" height="42" rx="3"/></g>
  <text x="320" y="386" text-anchor="middle" font-family="Arial, sans-serif" font-size="22" font-weight="700" fill="#1e293b">2.4GHz RF Transceiver</text>
</svg>
