<svg xmlns="http://www.w3.org/2000/svg" viewBox="0 0 640 420" role="img" aria-labelledby="title desc"><title id="title">Raspberry Pi Pico illustration</title><desc id="desc">Vector illustration of a Raspberry Pi Pico board.</desc><rect width="640" height="420" rx="32" fill="#f8fafc"/><rect x="202" y="50" width="236" height="318" rx="26" fill="#16a34a"/><rect x="270" y="22" width="100" height="48" rx="8" fill="#cbd5e1"/><rect x="258" y="138" width="124" height="86" rx="14" fill="#052e16"/><text x="320" y="188" text-anchor="middle" font-family="Arial,sans-serif" font-size="30" font-weight="900" fill="#dcfce7">PICO</text><circle cx="320" cy="276" r="34" fill="#86efac"/><g fill="#e2e8f0"><rect x="174" y="90" width="18" height="22" rx="3"/><rect x="174" y="128" width="18" height="22" rx="3"/><rect x="174" y="166" width="18" height="22" rx="3"/><rect x="174" y="204" width="18" height="22" rx="3"/><rect x="174" y="242" width="18" height="22" rx="3"/><rect x="448" y="90" width="18" height="22" rx="3"/><rect x="448" y="128" width="18" height="22" rx="3"/><rect x="448" y="166" width="18" height="22" rx="3"/><rect x="448" y="204" width="18" height="22" rx="3"/><rect x="448" y="242" width="18" height="22" rx="3"/></g><text x="320" y="394" text-anchor="middle" font-family="Arial,sans-serif" font-size="22" font-weight="700" fill="#1e293b">RP2040 Microcontroller</text></svg>
