<svg xmlns="http://www.w3.org/2000/svg" viewBox="0 0 640 420" role="img" aria-labelledby="title desc">
  <title id="title">RC522 RFID reader illustration</title>
  <desc id="desc">Clean vector illustration of an RC522 RFID reader module with antenna coil and pins.</desc>
  <rect width="640" height="420" rx="32" fill="#f8fafc"/>
  <rect x="160" y="70" width="320" height="250" rx="20" fill="#2563eb"/>
  <rect x="204" y="116" width="232" height="150" rx="18" fill="none" stroke="#bfdbfe" stroke-width="12"/>
  <rect x="232" y="144" width="176" height="94" rx="14" fill="none" stroke="#bfdbfe" stroke-width="10"/>
  <rect x="278" y="176" width="84" height="36" rx="8" fill="#1e40af"/>
  <text x="320" y="200" text-anchor="middle" font-family="Arial, sans-serif" font-size="18" font-weight="800" fill="#dbeafe">RC522</text>
  <g fill="#94a3b8"><rect x="196" y="320" width="16" height="40" rx="3"/><rect x="232" y="320" width="16" height="40" rx="3"/><rect x="268" y="320" width="16" height="40" rx="3"/><rect x="304" y="320" width="16" height="40" rx="3"/><rect x="340" y="320" width="16" height="40" rx="3"/><rect x="376" y="320" width="16" height="40" rx="3"/><rect x="412" y="320" width="16" height="40" rx="3"/></g>
  <text x="320" y="386" text-anchor="middle" font-family="Arial, sans-serif" font-size="22" font-weight="700" fill="#1e293b">13.56MHz RFID Reader</text>
</svg>
